<svg width="36" height="36" viewBox="0 0 36 36" fill="none" xmlns="http://www.w3.org/2000/svg">
<g clip-path="url(#clip0_5096_9361)">
<path fill-rule="evenodd" clip-rule="evenodd" d="M0.857112 18.0001C0.857111 17.4048 1.08285 16.8339 1.48467 16.413C1.88649 15.992 2.43147 15.7556 2.99973 15.7556L27.8241 15.7556L18.6237 6.12221C18.4245 5.91353 18.2665 5.66579 18.1586 5.39313C18.0508 5.12047 17.9953 4.82824 17.9953 4.53311C17.9953 4.23799 18.0508 3.94575 18.1586 3.6731C18.2665 3.40044 18.4245 3.15269 18.6237 2.94401C18.8229 2.73533 19.0594 2.56979 19.3197 2.45685C19.58 2.34391 19.8589 2.28579 20.1407 2.28579C20.4224 2.28579 20.7014 2.34391 20.9616 2.45685C21.2219 2.56979 21.4584 2.73533 21.6576 2.94401L34.5133 16.411C34.7129 16.6195 34.8712 16.8671 34.9792 17.1398C35.0872 17.4125 35.1428 17.7048 35.1428 18.0001C35.1428 18.2953 35.0872 18.5876 34.9792 18.8603C34.8712 19.133 34.7129 19.3807 34.5133 19.5892L21.6576 33.0561C21.2553 33.4776 20.7096 33.7144 20.1407 33.7144C19.5717 33.7144 19.026 33.4776 18.6237 33.0561C18.2214 32.6347 17.9953 32.0631 17.9953 31.467C17.9953 30.871 18.2214 30.2994 18.6237 29.8779L27.8241 20.2446L2.99973 20.2446C2.43147 20.2446 1.88649 20.0081 1.48467 19.5872C1.08285 19.1662 0.857112 18.5953 0.857112 18.0001Z" fill="#194341"/>
</g>
<defs>
<clipPath id="clip0_5096_9361">
<rect width="34.2857" height="34.2857" fill="white" transform="translate(0.857117 35.1431) rotate(-90)"/>
</clipPath>
</defs>
</svg>
